<mxfile host="app.diagrams.net" modified="2024-06-24T17:17:44.310Z" agent="Mozilla/5.0 (Windows NT 10.0; Win64; x64) AppleWebKit/537.36 (KHTML, like Gecko) Chrome/126.0.0.0 Safari/537.36" etag="loZuI-6yEGvDHq-zgGJh" version="24.6.2" type="github">
  <diagram name="Page-1" id="XASISeEGozsNvg2EYDIV">
    <mxGraphModel dx="1221" dy="626" grid="1" gridSize="10" guides="1" tooltips="1" connect="1" arrows="1" fold="1" page="1" pageScale="1" pageWidth="827" pageHeight="1169" math="0" shadow="0">
      <root>
        <mxCell id="0" />
        <mxCell id="1" parent="0" />
        <mxCell id="hrmtBR6GyVlA4JZVkxeB-1" value="" style="verticalLabelPosition=bottom;html=1;verticalAlign=top;align=center;strokeColor=none;fillColor=#00BEF2;shape=mxgraph.azure.file;pointerEvents=1;" vertex="1" parent="1">
          <mxGeometry x="100" y="140" width="97.5" height="102.63" as="geometry" />
        </mxCell>
        <mxCell id="hrmtBR6GyVlA4JZVkxeB-2" value="Open Document" style="text;html=1;align=center;verticalAlign=middle;resizable=0;points=[];autosize=1;strokeColor=none;fillColor=none;" vertex="1" parent="1">
          <mxGeometry x="93.75" y="260" width="110" height="30" as="geometry" />
        </mxCell>
        <mxCell id="hrmtBR6GyVlA4JZVkxeB-3" value="" style="shape=flexArrow;endArrow=classic;html=1;rounded=0;" edge="1" parent="1">
          <mxGeometry width="50" height="50" relative="1" as="geometry">
            <mxPoint x="230" y="190.82" as="sourcePoint" />
            <mxPoint x="360" y="190.82" as="targetPoint" />
          </mxGeometry>
        </mxCell>
        <mxCell id="hrmtBR6GyVlA4JZVkxeB-4" value="Ctrl + P Menu&lt;br&gt;&lt;br&gt;Syndesi: Convert to Mindmap Option&lt;div&gt;Syndesi: Update mindmap Option&lt;br&gt;&lt;/div&gt;" style="shape=process;whiteSpace=wrap;html=1;backgroundOutline=1;" vertex="1" parent="1">
          <mxGeometry x="414" y="116.82" width="298" height="149" as="geometry" />
        </mxCell>
        <mxCell id="hrmtBR6GyVlA4JZVkxeB-8" value="" style="shape=flexArrow;endArrow=classic;html=1;rounded=0;" edge="1" parent="1">
          <mxGeometry width="50" height="50" relative="1" as="geometry">
            <mxPoint x="550" y="270" as="sourcePoint" />
            <mxPoint x="550" y="390" as="targetPoint" />
          </mxGeometry>
        </mxCell>
        <mxCell id="hrmtBR6GyVlA4JZVkxeB-9" value="" style="verticalLabelPosition=bottom;html=1;verticalAlign=top;align=center;strokeColor=none;fillColor=#00BEF2;shape=mxgraph.azure.file;pointerEvents=1;" vertex="1" parent="1">
          <mxGeometry x="500" y="420" width="97.5" height="102.63" as="geometry" />
        </mxCell>
        <mxCell id="hrmtBR6GyVlA4JZVkxeB-10" value="filename-Mindmap.canvas" style="text;html=1;align=center;verticalAlign=middle;resizable=0;points=[];autosize=1;strokeColor=none;fillColor=none;" vertex="1" parent="1">
          <mxGeometry x="468.75" y="540" width="160" height="30" as="geometry" />
        </mxCell>
        <mxCell id="hrmtBR6GyVlA4JZVkxeB-14" value="&lt;div&gt;On Convert command:&lt;/div&gt;&lt;div&gt;1. Get the filepath to the current document&lt;/div&gt;&lt;div&gt;Construct path for final canvas&lt;/div&gt;&lt;div&gt;2. Use a single function to convert to the final canvas&lt;/div&gt;&lt;div&gt;3. save canvas in same directory for now&lt;/div&gt;" style="shape=process;whiteSpace=wrap;html=1;backgroundOutline=1;" vertex="1" parent="1">
          <mxGeometry x="30" y="391" width="298" height="149" as="geometry" />
        </mxCell>
        <mxCell id="hrmtBR6GyVlA4JZVkxeB-15" value="Future Settings - Mindmap Saving conventions&lt;div&gt;1. One subfolder per folder&amp;nbsp;&lt;/div&gt;&lt;div&gt;2. in the same folder&amp;nbsp;&lt;/div&gt;&lt;div&gt;3. one global folder&lt;/div&gt;&lt;div&gt;&lt;br&gt;&lt;/div&gt;&lt;div&gt;Distance between cards and default card size&lt;/div&gt;&lt;div&gt;Level till which mindmap is constructed&lt;/div&gt;&lt;div&gt;&lt;br&gt;&lt;/div&gt;" style="shape=process;whiteSpace=wrap;html=1;backgroundOutline=1;" vertex="1" parent="1">
          <mxGeometry x="30" y="850" width="310" height="210" as="geometry" />
        </mxCell>
      </root>
    </mxGraphModel>
  </diagram>
</mxfile>
